<?xml version="1.0" standalone="no"?>
<!DOCTYPE svg PUBLIC "-//W3C//DTD SVG 20010904//EN"
 "http://www.w3.org/TR/2001/REC-SVG-20010904/DTD/svg10.dtd">
<svg version="1.0" xmlns="http://www.w3.org/2000/svg"
 width="500.000000pt" height="500.000000pt" viewBox="0 0 500.000000 500.000000"
 preserveAspectRatio="xMidYMid meet">
<metadata>
Created by potrace 1.14, written by Peter Selinger 2001-2017
</metadata>
<g transform="translate(0.000000,500.000000) scale(0.100000,-0.100000)"
fill="#000000" stroke="none">
<path d="M968 4693 c-17 -4 -18 -52 -18 -829 l0 -824 205 0 205 0 0 456 c0
281 4 453 9 449 6 -3 178 -246 383 -540 l373 -535 327 0 328 0 0 909 0 909
-22 6 c-46 12 -353 7 -371 -6 -16 -12 -17 -70 -19 -723 l-3 -710 -490 700
c-269 385 -500 710 -512 723 -21 21 -28 22 -200 21 -98 -1 -186 -3 -195 -6z"/>
<path d="M963 2993 c-9 -3 0 -24 28 -64 l40 -59 204 0 c113 0 205 2 205 5 0 8
-73 109 -85 117 -11 8 -373 9 -392 1z"/>
<path d="M3310 2782 c-27 -22 -18 -49 21 -57 16 -4 29 -11 29 -16 0 -15 -33
-24 -38 -11 -4 13 -32 17 -32 4 0 -31 68 -44 90 -17 17 21 5 44 -30 56 -39 14
-39 33 0 26 34 -7 40 7 11 23 -25 13 -25 13 -51 -8z"/>
<path d="M1200 2730 c0 -46 3 -60 14 -60 10 0 16 13 18 38 l3 37 23 -37 c36
-57 52 -50 52 22 0 47 -3 60 -15 60 -11 0 -15 -11 -15 -37 l0 -38 -25 38 c-39
56 -55 49 -55 -23z"/>
<path d="M1431 2734 c-11 -31 -21 -58 -21 -60 0 -11 29 -2 34 11 3 8 15 15 26
15 11 0 23 -7 26 -15 4 -8 12 -15 19 -15 11 0 9 14 -7 60 -26 79 -47 81 -77 4z
m49 0 c0 -8 -6 -14 -14 -14 -9 0 -12 7 -9 20 6 22 23 18 23 -6z"/>
<path d="M1630 2780 c0 -5 7 -10 15 -10 11 0 15 -12 15 -50 0 -38 4 -50 15
-50 11 0 15 12 15 50 0 43 3 50 20 50 11 0 20 5 20 10 0 6 -22 10 -50 10 -27
0 -50 -4 -50 -10z"/>
<path d="M1865 2778 c-15 -42 -35 -101 -35 -104 0 -2 7 -4 15 -4 8 0 15 7 15
15 0 21 40 19 56 -2 22 -31 26 -6 8 51 -13 41 -22 56 -36 56 -10 0 -21 -6 -23
-12z m35 -50 c0 -5 -6 -8 -14 -8 -9 0 -12 7 -9 21 4 16 8 17 14 7 5 -7 9 -16
9 -20z"/>
<path d="M2050 2730 l0 -60 40 0 c45 0 55 17 13 22 -26 3 -28 7 -31 51 -4 68
-22 58 -22 -13z"/>
<path d="M2230 2730 c0 -47 3 -60 15 -60 12 0 15 13 15 60 0 47 -3 60 -15 60
-12 0 -15 -13 -15 -60z"/>
<path d="M2382 2730 c-16 -46 -18 -60 -7 -60 7 0 15 7 19 15 3 8 15 15 26 15
11 0 23 -7 26 -15 5 -13 34 -22 34 -10 0 2 -9 29 -21 60 -28 76 -50 75 -77 -5z
m46 -9 c-15 -5 -21 7 -13 26 7 17 8 17 15 -2 4 -11 3 -22 -2 -24z"/>
<path d="M2848 2730 c19 -69 40 -77 55 -20 l10 35 15 -37 c19 -50 37 -48 51 6
6 24 13 51 17 60 4 10 1 16 -9 16 -10 0 -18 -13 -23 -35 -7 -40 -19 -38 -27 5
-9 42 -34 39 -43 -5 -7 -40 -19 -38 -27 5 -4 16 -13 30 -21 30 -12 0 -11 -9 2
-60z"/>
<path d="M3100 2730 l0 -60 40 0 c22 0 40 5 40 10 0 6 -11 10 -25 10 -16 0
-25 6 -25 15 0 9 9 15 25 15 14 0 25 5 25 10 0 6 -11 10 -25 10 -16 0 -25 6
-25 15 0 9 9 15 25 15 14 0 25 5 25 10 0 6 -18 10 -40 10 l-40 0 0 -60z"/>
<path d="M3490 2730 l0 -60 45 0 c25 0 45 5 45 10 0 6 -13 10 -30 10 -20 0
-30 5 -30 15 0 9 9 15 25 15 14 0 25 5 25 10 0 6 -11 10 -25 10 -16 0 -25 6
-25 15 0 10 10 15 30 15 17 0 30 5 30 10 0 6 -20 10 -45 10 l-45 0 0 -60z"/>
<path d="M3690 2730 c0 -66 17 -83 22 -22 l3 37 25 -37 c37 -55 50 -49 50 22
0 45 -3 60 -14 60 -9 0 -16 -12 -18 -32 l-3 -33 -20 33 c-30 50 -45 42 -45
-28z"/>
<path d="M3900 2730 l0 -60 40 0 c45 0 55 17 13 22 -39 4 -42 28 -4 28 38 0
41 17 4 22 -39 4 -42 28 -4 28 17 0 31 5 31 10 0 6 -18 10 -40 10 l-40 0 0
-60z"/>
<path d="M4090 2731 c0 -48 3 -61 15 -61 8 0 15 9 15 20 0 11 4 20 10 20 5 0
14 -9 20 -20 6 -11 18 -20 27 -20 14 0 14 2 0 24 -11 16 -12 27 -6 33 6 6 9
21 7 34 -2 20 -10 24 -45 27 l-43 3 0 -60z m68 22 c2 -8 -5 -13 -17 -13 -12 0
-21 6 -21 16 0 18 31 15 38 -3z"/>
<path d="M1230 2588 c0 -2 278 -401 618 -888 l617 -885 125 -3 c69 -2 140 0
157 3 l33 6 2 460 3 461 501 -718 501 -719 204 0 204 0 0 1085 0 1085 -194 3
c-129 2 -198 -1 -205 -8 -8 -8 -13 -234 -16 -715 l-5 -704 -500 715 -500 714
-205 -2 -205 -3 -5 -453 -5 -454 -355 509 -355 508 -208 3 c-114 1 -207 1
-207 0z"/>
<path d="M2330 2581 c0 -5 13 -23 29 -40 l29 -31 180 0 c99 0 187 3 196 6 10
4 16 18 16 40 l0 34 -225 0 c-126 0 -225 -4 -225 -9z"/>
</g>
</svg>
